<?xml version="1.0" encoding="UTF-8" standalone="no"?>
<!DOCTYPE svg PUBLIC "-//W3C//DTD SVG 1.1//EN"
 "http://www.w3.org/Graphics/SVG/1.1/DTD/svg11.dtd">
<!-- Generated by graphviz version 2.49.2 (20211016.1639)
 -->
<!-- Title: DependenciesGraph Pages: 1 -->
<svg width="1350pt" height="239pt"
 viewBox="0.00 0.00 1349.50 239.00" xmlns="http://www.w3.org/2000/svg" xmlns:xlink="http://www.w3.org/1999/xlink">
<g id="graph0" class="graph" transform="scale(1 1) rotate(0) translate(4 235)">
<title>DependenciesGraph</title>
<polygon fill="white" stroke="transparent" points="-4,4 -4,-235 1345.5,-235 1345.5,4 -4,4"/>
<!-- /Users/yume/git/yume/TypeFill -->
<g id="node1" class="node">
<title>/Users/yume/git/yume/TypeFill</title>
<polygon fill="none" stroke="black" points="793.5,-231 601.5,-231 601.5,-178 793.5,-178 793.5,-231"/>
<text text-anchor="middle" x="697.5" y="-215.8" font-family="Times,serif" font-size="14.00">typefill</text>
<text text-anchor="middle" x="697.5" y="-200.8" font-family="Times,serif" font-size="14.00">/Users/yume/git/yume/TypeFill</text>
<text text-anchor="middle" x="697.5" y="-185.8" font-family="Times,serif" font-size="14.00">unspecified</text>
</g>
<!-- https://github.com/jpsim/SourceKitten -->
<g id="node2" class="node">
<title>https://github.com/jpsim/SourceKitten</title>
<polygon fill="none" stroke="black" points="537.5,-142 305.5,-142 305.5,-89 537.5,-89 537.5,-142"/>
<text text-anchor="middle" x="421.5" y="-126.8" font-family="Times,serif" font-size="14.00">sourcekitten</text>
<text text-anchor="middle" x="421.5" y="-111.8" font-family="Times,serif" font-size="14.00">https://github.com/jpsim/SourceKitten</text>
<text text-anchor="middle" x="421.5" y="-96.8" font-family="Times,serif" font-size="14.00">0.31.0</text>
</g>
<!-- /Users/yume/git/yume/TypeFill&#45;&gt;https://github.com/jpsim/SourceKitten -->
<g id="edge1" class="edge">
<title>/Users/yume/git/yume/TypeFill&#45;&gt;https://github.com/jpsim/SourceKitten</title>
<path fill="none" stroke="black" d="M616.56,-177.98C583.84,-167.67 545.93,-155.72 512.27,-145.11"/>
<polygon fill="black" stroke="black" points="513.03,-141.68 502.44,-142.01 510.93,-148.36 513.03,-141.68"/>
</g>
<!-- https://github.com/apple/swift&#45;argument&#45;parser.git -->
<g id="node3" class="node">
<title>https://github.com/apple/swift&#45;argument&#45;parser.git</title>
<polygon fill="none" stroke="black" points="299,-53 0,-53 0,0 299,0 299,-53"/>
<text text-anchor="middle" x="149.5" y="-37.8" font-family="Times,serif" font-size="14.00">swift&#45;argument&#45;parser</text>
<text text-anchor="middle" x="149.5" y="-22.8" font-family="Times,serif" font-size="14.00">https://github.com/apple/swift&#45;argument&#45;parser.git</text>
<text text-anchor="middle" x="149.5" y="-7.8" font-family="Times,serif" font-size="14.00">0.3.2</text>
</g>
<!-- /Users/yume/git/yume/TypeFill&#45;&gt;https://github.com/apple/swift&#45;argument&#45;parser.git -->
<g id="edge5" class="edge">
<title>/Users/yume/git/yume/TypeFill&#45;&gt;https://github.com/apple/swift&#45;argument&#45;parser.git</title>
<path fill="none" stroke="black" d="M601.41,-202.28C517.75,-198.11 394.81,-184.38 296.5,-142 251.97,-122.81 209.18,-86.83 181.37,-60.31"/>
<polygon fill="black" stroke="black" points="183.55,-57.54 173.93,-53.1 178.68,-62.57 183.55,-57.54"/>
</g>
<!-- https://github.com/krzyzanowskim/CryptoSwift -->
<g id="node6" class="node">
<title>https://github.com/krzyzanowskim/CryptoSwift</title>
<polygon fill="none" stroke="black" points="839.5,-142 555.5,-142 555.5,-89 839.5,-89 839.5,-142"/>
<text text-anchor="middle" x="697.5" y="-126.8" font-family="Times,serif" font-size="14.00">cryptoswift</text>
<text text-anchor="middle" x="697.5" y="-111.8" font-family="Times,serif" font-size="14.00">https://github.com/krzyzanowskim/CryptoSwift</text>
<text text-anchor="middle" x="697.5" y="-96.8" font-family="Times,serif" font-size="14.00">1.4.2</text>
</g>
<!-- /Users/yume/git/yume/TypeFill&#45;&gt;https://github.com/krzyzanowskim/CryptoSwift -->
<g id="edge6" class="edge">
<title>/Users/yume/git/yume/TypeFill&#45;&gt;https://github.com/krzyzanowskim/CryptoSwift</title>
<path fill="none" stroke="black" d="M697.5,-177.87C697.5,-169.89 697.5,-160.93 697.5,-152.38"/>
<polygon fill="black" stroke="black" points="701,-152.25 697.5,-142.25 694,-152.25 701,-152.25"/>
</g>
<!-- https://github.com/onevcat/Rainbow -->
<g id="node7" class="node">
<title>https://github.com/onevcat/Rainbow</title>
<polygon fill="none" stroke="black" points="1079,-142 858,-142 858,-89 1079,-89 1079,-142"/>
<text text-anchor="middle" x="968.5" y="-126.8" font-family="Times,serif" font-size="14.00">rainbow</text>
<text text-anchor="middle" x="968.5" y="-111.8" font-family="Times,serif" font-size="14.00">https://github.com/onevcat/Rainbow</text>
<text text-anchor="middle" x="968.5" y="-96.8" font-family="Times,serif" font-size="14.00">4.0.1</text>
</g>
<!-- /Users/yume/git/yume/TypeFill&#45;&gt;https://github.com/onevcat/Rainbow -->
<g id="edge7" class="edge">
<title>/Users/yume/git/yume/TypeFill&#45;&gt;https://github.com/onevcat/Rainbow</title>
<path fill="none" stroke="black" d="M776.98,-177.98C809.1,-167.67 846.33,-155.72 879.37,-145.11"/>
<polygon fill="black" stroke="black" points="880.57,-148.4 889.02,-142.01 878.43,-141.74 880.57,-148.4"/>
</g>
<!-- https://github.com/apple/swift&#45;syntax.git -->
<g id="node8" class="node">
<title>https://github.com/apple/swift&#45;syntax.git</title>
<polygon fill="none" stroke="black" points="1341.5,-142 1097.5,-142 1097.5,-89 1341.5,-89 1341.5,-142"/>
<text text-anchor="middle" x="1219.5" y="-126.8" font-family="Times,serif" font-size="14.00">swift&#45;syntax</text>
<text text-anchor="middle" x="1219.5" y="-111.8" font-family="Times,serif" font-size="14.00">https://github.com/apple/swift&#45;syntax.git</text>
<text text-anchor="middle" x="1219.5" y="-96.8" font-family="Times,serif" font-size="14.00">unspecified</text>
</g>
<!-- /Users/yume/git/yume/TypeFill&#45;&gt;https://github.com/apple/swift&#45;syntax.git -->
<g id="edge8" class="edge">
<title>/Users/yume/git/yume/TypeFill&#45;&gt;https://github.com/apple/swift&#45;syntax.git</title>
<path fill="none" stroke="black" d="M793.67,-189.37C870.52,-177.84 981.22,-160.72 1087.55,-142.14"/>
<polygon fill="black" stroke="black" points="1088.25,-145.57 1097.5,-140.4 1087.04,-138.68 1088.25,-145.57"/>
</g>
<!-- https://github.com/jpsim/SourceKitten&#45;&gt;https://github.com/apple/swift&#45;argument&#45;parser.git -->
<g id="edge2" class="edge">
<title>https://github.com/jpsim/SourceKitten&#45;&gt;https://github.com/apple/swift&#45;argument&#45;parser.git</title>
<path fill="none" stroke="black" d="M341.73,-88.98C309.48,-78.67 272.12,-66.72 238.96,-56.11"/>
<polygon fill="black" stroke="black" points="239.86,-52.73 229.27,-53.01 237.73,-59.39 239.86,-52.73"/>
</g>
<!-- https://github.com/drmohundro/SWXMLHash.git -->
<g id="node4" class="node">
<title>https://github.com/drmohundro/SWXMLHash.git</title>
<polygon fill="none" stroke="black" points="612,-53 317,-53 317,0 612,0 612,-53"/>
<text text-anchor="middle" x="464.5" y="-37.8" font-family="Times,serif" font-size="14.00">swxmlhash</text>
<text text-anchor="middle" x="464.5" y="-22.8" font-family="Times,serif" font-size="14.00">https://github.com/drmohundro/SWXMLHash.git</text>
<text text-anchor="middle" x="464.5" y="-7.8" font-family="Times,serif" font-size="14.00">5.0.1</text>
</g>
<!-- https://github.com/jpsim/SourceKitten&#45;&gt;https://github.com/drmohundro/SWXMLHash.git -->
<g id="edge3" class="edge">
<title>https://github.com/jpsim/SourceKitten&#45;&gt;https://github.com/drmohundro/SWXMLHash.git</title>
<path fill="none" stroke="black" d="M434.17,-88.87C438.29,-80.53 442.93,-71.14 447.32,-62.26"/>
<polygon fill="black" stroke="black" points="450.48,-63.77 451.77,-53.25 444.2,-60.66 450.48,-63.77"/>
</g>
<!-- https://github.com/jpsim/Yams.git -->
<g id="node5" class="node">
<title>https://github.com/jpsim/Yams.git</title>
<polygon fill="none" stroke="black" points="837,-53 630,-53 630,0 837,0 837,-53"/>
<text text-anchor="middle" x="733.5" y="-37.8" font-family="Times,serif" font-size="14.00">yams</text>
<text text-anchor="middle" x="733.5" y="-22.8" font-family="Times,serif" font-size="14.00">https://github.com/jpsim/Yams.git</text>
<text text-anchor="middle" x="733.5" y="-7.8" font-family="Times,serif" font-size="14.00">4.0.4</text>
</g>
<!-- https://github.com/jpsim/SourceKitten&#45;&gt;https://github.com/jpsim/Yams.git -->
<g id="edge4" class="edge">
<title>https://github.com/jpsim/SourceKitten&#45;&gt;https://github.com/jpsim/Yams.git</title>
<path fill="none" stroke="black" d="M513,-88.98C550.46,-78.54 593.95,-66.41 632.35,-55.7"/>
<polygon fill="black" stroke="black" points="633.31,-59.07 642,-53.01 631.43,-52.33 633.31,-59.07"/>
</g>
</g>
</svg>
